<?xml version="1.0" encoding="utf-8"?>
<svg viewBox="0 0 1280 640" xmlns="http://www.w3.org/2000/svg">
  <rect width="1280" height="640" style="fill: rgb(255, 255, 255);"/>
  <path d="M 451.893 427.019 L 427.383 427.019 L 427.383 421.109 L 435.023 419.799 L 435.023 366.039 L 427.383 364.719 L 427.383 358.819 L 457.803 358.819 C 462.77 358.819 466.963 359.559 470.383 361.039 C 473.81 362.526 476.413 364.676 478.193 367.489 C 479.973 370.302 480.863 373.739 480.863 377.799 C 480.863 381.799 479.996 385.159 478.263 387.879 C 476.53 390.599 474.07 392.652 470.883 394.039 C 467.696 395.432 463.913 396.176 459.533 396.269 L 444.253 396.549 L 444.253 419.799 L 451.893 421.109 L 451.893 427.019 Z M 483.813 427.019 L 472.423 427.019 L 457.243 392.939 L 466.473 392.849 L 479.083 420.129 L 483.813 420.969 L 483.813 427.019 Z M 444.253 366.039 L 444.253 389.289 L 456.863 389.289 C 462.023 389.289 465.773 388.302 468.113 386.329 C 470.46 384.362 471.633 381.489 471.633 377.709 C 471.633 374.116 470.506 371.272 468.253 369.179 C 466.006 367.086 462.523 366.039 457.803 366.039 L 444.253 366.039 ZM 511.195 427.019 L 490.475 427.019 L 490.475 421.109 L 496.095 420.039 L 511.235 401.379 L 496.425 383.329 L 491.415 382.249 L 491.415 376.299 L 511.285 376.299 L 511.285 382.249 L 506.225 382.819 L 516.635 395.749 L 526.755 382.769 L 521.315 382.249 L 521.315 376.299 L 540.865 376.299 L 540.865 382.249 L 535.705 383.329 L 521.975 401.239 L 537.775 420.039 L 543.025 421.109 L 543.025 427.019 L 521.505 427.019 L 521.505 421.109 L 527.595 420.599 L 516.485 407.049 L 505.705 420.599 L 511.195 421.109 L 511.195 427.019 ZM 600.676 427.019 L 548.696 427.019 L 548.696 421.109 L 556.336 419.799 L 556.336 366.039 L 548.696 364.719 L 548.696 358.769 L 599.226 358.769 L 599.226 375.179 L 591.816 375.179 L 590.786 365.889 L 565.566 365.889 L 565.566 388.109 L 590.736 388.109 L 590.736 395.379 L 565.566 395.379 L 565.566 420.079 L 592.286 420.079 L 593.316 410.659 L 600.676 410.659 L 600.676 427.019 ZM 634.151 427.019 L 608.551 427.019 L 608.551 421.109 L 616.191 419.799 L 616.191 383.139 L 608.271 383.139 L 608.271 376.299 L 616.191 376.299 L 616.191 369.879 C 616.191 364.472 617.604 360.292 620.431 357.339 C 623.264 354.386 627.211 352.909 632.271 352.909 C 633.331 352.909 634.481 352.996 635.721 353.169 C 636.954 353.342 638.227 353.582 639.541 353.889 L 638.411 360.929 C 637.851 360.802 637.094 360.692 636.141 360.599 C 635.187 360.506 634.287 360.459 633.441 360.459 C 630.721 360.459 628.707 361.262 627.401 362.869 C 626.087 364.482 625.431 366.819 625.431 369.879 L 625.431 376.299 L 636.491 376.299 L 636.491 383.139 L 625.431 383.139 L 625.431 419.799 L 634.151 421.109 L 634.151 427.019 ZM 668.135 427.019 L 642.535 427.019 L 642.535 421.109 L 650.175 419.799 L 650.175 383.139 L 642.255 383.139 L 642.255 376.299 L 650.175 376.299 L 650.175 369.879 C 650.175 364.472 651.588 360.292 654.415 357.339 C 657.248 354.386 661.195 352.909 666.255 352.909 C 667.315 352.909 668.465 352.996 669.705 353.169 C 670.938 353.342 672.212 353.582 673.525 353.889 L 672.395 360.929 C 671.835 360.802 671.078 360.692 670.125 360.599 C 669.172 360.506 668.272 360.459 667.425 360.459 C 664.705 360.459 662.692 361.262 661.385 362.869 C 660.072 364.482 659.415 366.819 659.415 369.879 L 659.415 376.299 L 670.475 376.299 L 670.475 383.139 L 659.415 383.139 L 659.415 419.799 L 668.135 421.109 L 668.135 427.019 ZM 699.351 427.999 C 694.664 427.999 690.584 426.929 687.111 424.789 C 683.644 422.649 680.964 419.672 679.071 415.859 C 677.184 412.046 676.241 407.639 676.241 402.639 L 676.241 400.579 C 676.241 395.766 677.234 391.462 679.221 387.669 C 681.201 383.869 683.841 380.869 687.141 378.669 C 690.434 376.462 694.034 375.359 697.941 375.359 C 702.507 375.359 706.327 376.299 709.401 378.179 C 712.481 380.052 714.801 382.682 716.361 386.069 C 717.927 389.462 718.711 393.456 718.711 398.049 L 718.711 403.819 L 685.801 403.819 L 685.661 404.049 C 685.721 407.302 686.291 410.186 687.371 412.699 C 688.451 415.212 690.007 417.189 692.041 418.629 C 694.067 420.069 696.504 420.789 699.351 420.789 C 702.477 420.789 705.217 420.342 707.571 419.449 C 709.931 418.556 711.971 417.329 713.691 415.769 L 717.301 421.769 C 715.487 423.516 713.091 424.992 710.111 426.199 C 707.124 427.399 703.537 427.999 699.351 427.999 Z M 685.991 396.359 L 686.081 396.599 L 709.471 396.599 L 709.471 395.379 C 709.471 392.939 709.041 390.759 708.181 388.839 C 707.327 386.919 706.047 385.402 704.341 384.289 C 702.641 383.182 700.507 382.629 697.941 382.629 C 695.881 382.629 694.007 383.229 692.321 384.429 C 690.634 385.636 689.244 387.269 688.151 389.329 C 687.051 391.396 686.331 393.739 685.991 396.359 ZM 750.676 427.999 C 746.083 427.999 742.083 426.929 738.676 424.789 C 735.27 422.649 732.63 419.672 730.756 415.859 C 728.883 412.046 727.946 407.639 727.946 402.639 L 727.946 400.679 C 727.946 395.866 728.853 391.552 730.666 387.739 C 732.473 383.926 735.08 380.909 738.486 378.689 C 741.893 376.469 745.956 375.359 750.676 375.359 C 754.77 375.359 758.356 376.032 761.436 377.379 C 764.516 378.719 767.103 380.562 769.196 382.909 L 769.426 395.099 L 762.206 395.099 L 760.616 386.239 C 759.55 385.146 758.22 384.269 756.626 383.609 C 755.033 382.956 753.16 382.629 751.006 382.629 C 748.253 382.629 745.84 383.442 743.766 385.069 C 741.686 386.689 740.07 388.859 738.916 391.579 C 737.756 394.299 737.176 397.332 737.176 400.679 L 737.176 402.639 C 737.176 406.332 737.716 409.536 738.796 412.249 C 739.876 414.969 741.423 417.072 743.436 418.559 C 745.45 420.046 747.846 420.789 750.626 420.789 C 753.753 420.789 756.35 419.929 758.416 418.209 C 760.476 416.489 761.74 414.129 762.206 411.129 L 770.506 411.129 L 770.596 411.409 C 770.443 414.316 769.583 417.036 768.016 419.569 C 766.456 422.096 764.23 424.132 761.336 425.679 C 758.45 427.226 754.896 427.999 750.676 427.999 ZM 795.682 427.819 C 791.929 427.819 788.952 426.716 786.752 424.509 C 784.545 422.309 783.442 418.786 783.442 413.939 L 783.442 383.139 L 775.432 383.139 L 775.432 376.299 L 783.442 376.299 L 783.442 364.069 L 792.682 364.069 L 792.682 376.299 L 803.692 376.299 L 803.692 383.139 L 792.682 383.139 L 792.682 413.939 C 792.682 416.379 793.165 418.176 794.132 419.329 C 795.099 420.489 796.395 421.069 798.022 421.069 C 799.115 421.069 800.335 420.966 801.682 420.759 C 803.022 420.559 804.069 420.379 804.822 420.219 L 806.082 426.269 C 804.742 426.676 803.095 427.036 801.142 427.349 C 799.189 427.662 797.369 427.819 795.682 427.819 ZM 832.521 427.999 C 829.114 427.999 825.927 427.656 822.961 426.969 C 819.987 426.282 816.831 425.222 813.491 423.789 L 813.401 411.739 L 820.381 411.739 L 822.111 418.999 C 823.864 419.719 825.561 420.242 827.201 420.569 C 828.841 420.902 830.614 421.069 832.521 421.069 C 836.274 421.069 838.961 420.349 840.581 418.909 C 842.207 417.469 843.021 415.689 843.021 413.569 C 843.021 411.569 842.201 409.872 840.561 408.479 C 838.921 407.086 835.944 405.906 831.631 404.939 C 825.504 403.532 820.997 401.649 818.111 399.289 C 815.217 396.929 813.771 393.782 813.771 389.849 C 813.771 387.096 814.567 384.636 816.161 382.469 C 817.754 380.296 819.974 378.569 822.821 377.289 C 825.661 376.002 828.971 375.359 832.751 375.359 C 836.597 375.359 839.887 375.799 842.621 376.679 C 845.354 377.552 847.737 378.722 849.771 380.189 L 850.241 391.769 L 843.301 391.769 L 841.801 385.019 C 840.707 384.206 839.411 383.579 837.911 383.139 C 836.411 382.706 834.691 382.489 832.751 382.489 C 829.877 382.489 827.544 383.159 825.751 384.499 C 823.951 385.846 823.051 387.536 823.051 389.569 C 823.051 390.756 823.307 391.786 823.821 392.659 C 824.341 393.532 825.334 394.322 826.801 395.029 C 828.267 395.729 830.424 396.422 833.271 397.109 C 840.331 398.769 845.261 400.879 848.061 403.439 C 850.854 406.006 852.251 409.162 852.251 412.909 C 852.251 417.189 850.667 420.776 847.501 423.669 C 844.327 426.556 839.334 427.999 832.521 427.999 Z" transform="matrix(1, 0, 0, 1, 0, 0)" style="fill: rgb(38, 55, 64); white-space: pre;"/>
  <path d="M 99.615 556.224 L 89.165 556.224 L 89.165 554.164 L 92.985 553.864 L 92.985 524.444 L 89.165 524.144 L 89.165 522.104 L 103.555 522.104 C 105.995 522.104 108.058 522.464 109.745 523.184 C 111.431 523.897 112.715 524.944 113.595 526.324 C 114.481 527.697 114.925 529.391 114.925 531.404 C 114.925 533.357 114.468 535.007 113.555 536.354 C 112.641 537.694 111.358 538.714 109.705 539.414 C 108.058 540.107 106.125 540.461 103.905 540.474 L 95.795 540.544 L 95.795 553.864 L 99.615 554.164 L 99.615 556.224 Z M 116.895 556.224 L 112.115 556.224 L 104.775 539.284 L 107.585 539.254 L 114.105 553.954 L 116.895 554.144 L 116.895 556.224 Z M 95.795 524.444 L 95.795 538.204 L 103.275 538.204 C 106.321 538.204 108.555 537.577 109.975 536.324 C 111.401 535.077 112.115 533.431 112.115 531.384 C 112.115 529.177 111.401 527.471 109.975 526.264 C 108.555 525.051 106.415 524.444 103.555 524.444 L 95.795 524.444 ZM 132.828 556.694 C 130.654 556.694 128.741 556.167 127.088 555.114 C 125.434 554.061 124.138 552.601 123.198 550.734 C 122.258 548.867 121.788 546.714 121.788 544.274 L 121.788 542.984 C 121.788 540.564 122.258 538.404 123.198 536.504 C 124.138 534.604 125.408 533.107 127.008 532.014 C 128.608 530.921 130.391 530.374 132.358 530.374 C 134.438 530.374 136.218 530.821 137.698 531.714 C 139.171 532.601 140.301 533.854 141.088 535.474 C 141.881 537.094 142.278 538.997 142.278 541.184 L 142.278 543.574 L 124.698 543.574 L 124.648 544.604 C 124.668 546.477 125.018 548.147 125.698 549.614 C 126.378 551.087 127.328 552.244 128.548 553.084 C 129.774 553.931 131.201 554.354 132.828 554.354 C 134.421 554.354 135.824 554.101 137.038 553.594 C 138.251 553.081 139.318 552.387 140.238 551.514 L 141.428 553.434 C 140.448 554.374 139.258 555.154 137.858 555.774 C 136.458 556.387 134.781 556.694 132.828 556.694 Z M 124.838 541.084 L 124.888 541.224 L 139.468 541.224 L 139.468 540.524 C 139.468 539.037 139.181 537.704 138.608 536.524 C 138.034 535.344 137.221 534.421 136.168 533.754 C 135.114 533.081 133.844 532.744 132.358 532.744 C 131.018 532.744 129.808 533.107 128.728 533.834 C 127.648 534.561 126.768 535.554 126.088 536.814 C 125.408 538.067 124.991 539.491 124.838 541.084 ZM 154.717 556.694 C 152.31 556.694 150.43 556.054 149.077 554.774 C 147.717 553.494 147.037 551.761 147.037 549.574 C 147.037 548.007 147.49 546.634 148.397 545.454 C 149.303 544.274 150.587 543.357 152.247 542.704 C 153.913 542.051 155.887 541.724 158.167 541.724 L 163.417 541.724 L 163.417 538.814 C 163.417 536.987 162.873 535.514 161.787 534.394 C 160.7 533.281 159.063 532.724 156.877 532.724 C 155.643 532.724 154.537 532.921 153.557 533.314 C 152.583 533.714 151.737 534.217 151.017 534.824 L 150.787 538.694 L 148.467 538.694 L 148.467 533.404 C 149.56 532.464 150.8 531.724 152.187 531.184 C 153.58 530.644 155.16 530.374 156.927 530.374 C 159.907 530.374 162.203 531.124 163.817 532.624 C 165.423 534.124 166.227 536.204 166.227 538.864 L 166.227 551.094 C 166.227 551.594 166.243 552.091 166.277 552.584 C 166.31 553.077 166.363 553.564 166.437 554.044 L 169.467 554.164 L 169.467 556.204 L 163.927 556.204 C 163.74 555.284 163.613 554.541 163.547 553.974 C 163.473 553.414 163.43 552.781 163.417 552.074 C 162.497 553.434 161.277 554.544 159.757 555.404 C 158.243 556.264 156.563 556.694 154.717 556.694 Z M 155.047 554.234 C 156.78 554.234 158.427 553.777 159.987 552.864 C 161.54 551.951 162.683 550.737 163.417 549.224 L 163.417 543.874 L 158.147 543.874 C 155.553 543.874 153.52 544.434 152.047 545.554 C 150.58 546.667 149.847 548.037 149.847 549.664 C 149.847 551.024 150.317 552.127 151.257 552.974 C 152.19 553.814 153.453 554.234 155.047 554.234 ZM 184.107 556.694 C 182 556.694 180.137 556.164 178.517 555.104 C 176.904 554.037 175.64 552.554 174.727 550.654 C 173.814 548.747 173.357 546.534 173.357 544.014 L 173.357 543.034 C 173.357 540.561 173.797 538.374 174.677 536.474 C 175.557 534.567 176.804 533.074 178.417 531.994 C 180.024 530.914 181.914 530.374 184.087 530.374 C 186.054 530.374 187.804 530.747 189.337 531.494 C 190.87 532.234 192.15 533.191 193.177 534.364 L 193.227 540.104 L 190.887 540.104 L 190.507 535.364 C 189.727 534.537 188.814 533.894 187.767 533.434 C 186.72 532.974 185.517 532.744 184.157 532.744 C 182.564 532.744 181.167 533.187 179.967 534.074 C 178.76 534.967 177.824 536.191 177.157 537.744 C 176.497 539.297 176.167 541.061 176.167 543.034 L 176.167 544.014 C 176.167 546.081 176.494 547.891 177.147 549.444 C 177.807 550.997 178.73 552.204 179.917 553.064 C 181.104 553.924 182.51 554.354 184.137 554.354 C 186.024 554.354 187.6 553.857 188.867 552.864 C 190.134 551.871 190.9 550.407 191.167 548.474 L 193.677 548.474 L 193.717 548.614 C 193.577 550.207 193.107 551.611 192.307 552.824 C 191.5 554.044 190.404 554.994 189.017 555.674 C 187.637 556.354 186 556.694 184.107 556.694 ZM 207.482 556.654 C 205.696 556.654 204.312 556.101 203.332 554.994 C 202.346 553.894 201.852 552.117 201.852 549.664 L 201.852 533.114 L 197.472 533.114 L 197.472 530.844 L 201.852 530.844 L 201.852 524.324 L 204.662 524.324 L 204.662 530.844 L 210.572 530.844 L 210.572 533.114 L 204.662 533.114 L 204.662 549.664 C 204.662 551.351 204.966 552.567 205.572 553.314 C 206.172 554.054 206.972 554.424 207.972 554.424 C 208.506 554.424 209.029 554.387 209.542 554.314 C 210.056 554.247 210.586 554.174 211.132 554.094 L 211.552 556.114 C 210.992 556.281 210.352 556.411 209.632 556.504 C 208.912 556.604 208.196 556.654 207.482 556.654 ZM 225.661 556.204 L 215.211 556.204 L 215.211 554.164 L 219.031 553.864 L 219.031 533.214 L 215.211 532.904 L 215.211 530.844 L 221.841 530.844 L 221.841 553.864 L 225.661 554.164 L 225.661 556.204 Z M 221.841 523.694 L 218.701 523.694 L 218.701 519.644 L 221.841 519.644 L 221.841 523.694 ZM 243.483 556.204 L 240.943 556.204 L 231.733 533.074 L 229.043 532.904 L 229.043 530.844 L 237.973 530.844 L 237.973 532.904 L 234.643 533.114 L 241.203 549.854 L 242.143 552.644 L 242.283 552.644 L 243.293 549.854 L 249.643 533.114 L 246.263 532.904 L 246.263 530.844 L 255.193 530.844 L 255.193 532.904 L 252.453 533.074 L 243.483 556.204 ZM 268.625 556.694 C 266.451 556.694 264.538 556.167 262.885 555.114 C 261.231 554.061 259.935 552.601 258.995 550.734 C 258.055 548.867 257.585 546.714 257.585 544.274 L 257.585 542.984 C 257.585 540.564 258.055 538.404 258.995 536.504 C 259.935 534.604 261.205 533.107 262.805 532.014 C 264.405 530.921 266.188 530.374 268.155 530.374 C 270.235 530.374 272.015 530.821 273.495 531.714 C 274.968 532.601 276.098 533.854 276.885 535.474 C 277.678 537.094 278.075 538.997 278.075 541.184 L 278.075 543.574 L 260.495 543.574 L 260.445 544.604 C 260.465 546.477 260.815 548.147 261.495 549.614 C 262.175 551.087 263.125 552.244 264.345 553.084 C 265.571 553.931 266.998 554.354 268.625 554.354 C 270.218 554.354 271.621 554.101 272.835 553.594 C 274.048 553.081 275.115 552.387 276.035 551.514 L 277.225 553.434 C 276.245 554.374 275.055 555.154 273.655 555.774 C 272.255 556.387 270.578 556.694 268.625 556.694 Z M 260.635 541.084 L 260.685 541.224 L 275.265 541.224 L 275.265 540.524 C 275.265 539.037 274.978 537.704 274.405 536.524 C 273.831 535.344 273.018 534.421 271.965 533.754 C 270.911 533.081 269.641 532.744 268.155 532.744 C 266.815 532.744 265.605 533.107 264.525 533.834 C 263.445 534.561 262.565 535.554 261.885 536.814 C 261.205 538.067 260.788 539.491 260.635 541.084 ZM 303.905 556.694 C 302.118 556.694 300.465 556.457 298.945 555.984 C 297.418 555.504 295.985 554.811 294.645 553.904 L 294.615 548.704 L 296.915 548.704 L 297.315 552.434 C 298.222 553.134 299.228 553.641 300.335 553.954 C 301.448 554.267 302.638 554.424 303.905 554.424 C 306.025 554.424 307.642 553.964 308.755 553.044 C 309.862 552.117 310.415 551.021 310.415 549.754 C 310.415 548.567 309.918 547.517 308.925 546.604 C 307.932 545.691 306.172 544.954 303.645 544.394 C 300.612 543.734 298.418 542.857 297.065 541.764 C 295.718 540.671 295.045 539.147 295.045 537.194 C 295.045 535.914 295.402 534.757 296.115 533.724 C 296.835 532.697 297.855 531.881 299.175 531.274 C 300.495 530.674 302.048 530.374 303.835 530.374 C 305.688 530.374 307.305 530.644 308.685 531.184 C 310.058 531.724 311.238 532.447 312.225 533.354 L 312.335 538.554 L 310.045 538.554 L 309.715 534.804 C 309.008 534.131 308.188 533.611 307.255 533.244 C 306.315 532.877 305.175 532.694 303.835 532.694 C 301.928 532.694 300.458 533.137 299.425 534.024 C 298.392 534.904 297.875 535.931 297.875 537.104 C 297.875 537.871 298.035 538.537 298.355 539.104 C 298.675 539.677 299.292 540.191 300.205 540.644 C 301.125 541.097 302.458 541.527 304.205 541.934 C 307.378 542.647 309.675 543.617 311.095 544.844 C 312.515 546.071 313.225 547.661 313.225 549.614 C 313.225 551.681 312.425 553.377 310.825 554.704 C 309.225 556.031 306.918 556.694 303.905 556.694 ZM 327.084 556.654 C 325.297 556.654 323.914 556.101 322.934 554.994 C 321.947 553.894 321.454 552.117 321.454 549.664 L 321.454 533.114 L 317.074 533.114 L 317.074 530.844 L 321.454 530.844 L 321.454 524.324 L 324.264 524.324 L 324.264 530.844 L 330.174 530.844 L 330.174 533.114 L 324.264 533.114 L 324.264 549.664 C 324.264 551.351 324.567 552.567 325.174 553.314 C 325.774 554.054 326.574 554.424 327.574 554.424 C 328.107 554.424 328.631 554.387 329.144 554.314 C 329.657 554.247 330.187 554.174 330.734 554.094 L 331.154 556.114 C 330.594 556.281 329.954 556.411 329.234 556.504 C 328.514 556.604 327.797 556.654 327.084 556.654 ZM 342.803 556.694 C 340.396 556.694 338.516 556.054 337.163 554.774 C 335.803 553.494 335.123 551.761 335.123 549.574 C 335.123 548.007 335.576 546.634 336.483 545.454 C 337.389 544.274 338.673 543.357 340.333 542.704 C 341.999 542.051 343.973 541.724 346.253 541.724 L 351.503 541.724 L 351.503 538.814 C 351.503 536.987 350.959 535.514 349.873 534.394 C 348.786 533.281 347.149 532.724 344.963 532.724 C 343.729 532.724 342.623 532.921 341.643 533.314 C 340.669 533.714 339.823 534.217 339.103 534.824 L 338.873 538.694 L 336.553 538.694 L 336.553 533.404 C 337.646 532.464 338.886 531.724 340.273 531.184 C 341.666 530.644 343.246 530.374 345.013 530.374 C 347.993 530.374 350.289 531.124 351.903 532.624 C 353.509 534.124 354.313 536.204 354.313 538.864 L 354.313 551.094 C 354.313 551.594 354.329 552.091 354.363 552.584 C 354.396 553.077 354.449 553.564 354.523 554.044 L 357.553 554.164 L 357.553 556.204 L 352.013 556.204 C 351.826 555.284 351.699 554.541 351.633 553.974 C 351.559 553.414 351.516 552.781 351.503 552.074 C 350.583 553.434 349.363 554.544 347.843 555.404 C 346.329 556.264 344.649 556.694 342.803 556.694 Z M 343.133 554.234 C 344.866 554.234 346.513 553.777 348.073 552.864 C 349.626 551.951 350.769 550.737 351.503 549.224 L 351.503 543.874 L 346.233 543.874 C 343.639 543.874 341.606 544.434 340.133 545.554 C 338.666 546.667 337.933 548.037 337.933 549.664 C 337.933 551.024 338.403 552.127 339.343 552.974 C 340.276 553.814 341.539 554.234 343.133 554.234 ZM 370.373 556.654 C 368.586 556.654 367.203 556.101 366.223 554.994 C 365.236 553.894 364.743 552.117 364.743 549.664 L 364.743 533.114 L 360.363 533.114 L 360.363 530.844 L 364.743 530.844 L 364.743 524.324 L 367.553 524.324 L 367.553 530.844 L 373.463 530.844 L 373.463 533.114 L 367.553 533.114 L 367.553 549.664 C 367.553 551.351 367.856 552.567 368.463 553.314 C 369.063 554.054 369.863 554.424 370.863 554.424 C 371.396 554.424 371.92 554.387 372.433 554.314 C 372.946 554.247 373.476 554.174 374.023 554.094 L 374.443 556.114 C 373.883 556.281 373.243 556.411 372.523 556.504 C 371.803 556.604 371.086 556.654 370.373 556.654 ZM 389.023 556.694 C 386.85 556.694 384.936 556.167 383.283 555.114 C 381.63 554.061 380.333 552.601 379.393 550.734 C 378.453 548.867 377.983 546.714 377.983 544.274 L 377.983 542.984 C 377.983 540.564 378.453 538.404 379.393 536.504 C 380.333 534.604 381.603 533.107 383.203 532.014 C 384.803 530.921 386.586 530.374 388.553 530.374 C 390.633 530.374 392.413 530.821 393.893 531.714 C 395.366 532.601 396.496 533.854 397.283 535.474 C 398.076 537.094 398.473 538.997 398.473 541.184 L 398.473 543.574 L 380.893 543.574 L 380.843 544.604 C 380.863 546.477 381.213 548.147 381.893 549.614 C 382.573 551.087 383.523 552.244 384.743 553.084 C 385.97 553.931 387.396 554.354 389.023 554.354 C 390.616 554.354 392.02 554.101 393.233 553.594 C 394.446 553.081 395.513 552.387 396.433 551.514 L 397.623 553.434 C 396.643 554.374 395.453 555.154 394.053 555.774 C 392.653 556.387 390.976 556.694 389.023 556.694 Z M 381.033 541.084 L 381.083 541.224 L 395.663 541.224 L 395.663 540.524 C 395.663 539.037 395.376 537.704 394.803 536.524 C 394.23 535.344 393.416 534.421 392.363 533.754 C 391.31 533.081 390.04 532.744 388.553 532.744 C 387.213 532.744 386.003 533.107 384.923 533.834 C 383.843 534.561 382.963 535.554 382.283 536.814 C 381.603 538.067 381.186 539.491 381.033 541.084 ZM 422.443 556.694 C 420.037 556.694 418.157 556.054 416.803 554.774 C 415.443 553.494 414.763 551.761 414.763 549.574 C 414.763 548.007 415.217 546.634 416.123 545.454 C 417.03 544.274 418.313 543.357 419.973 542.704 C 421.64 542.051 423.613 541.724 425.893 541.724 L 431.143 541.724 L 431.143 538.814 C 431.143 536.987 430.6 535.514 429.513 534.394 C 428.427 533.281 426.79 532.724 424.603 532.724 C 423.37 532.724 422.263 532.921 421.283 533.314 C 420.31 533.714 419.463 534.217 418.743 534.824 L 418.513 538.694 L 416.193 538.694 L 416.193 533.404 C 417.287 532.464 418.527 531.724 419.913 531.184 C 421.307 530.644 422.887 530.374 424.653 530.374 C 427.633 530.374 429.93 531.124 431.543 532.624 C 433.15 534.124 433.953 536.204 433.953 538.864 L 433.953 551.094 C 433.953 551.594 433.97 552.091 434.003 552.584 C 434.037 553.077 434.09 553.564 434.163 554.044 L 437.193 554.164 L 437.193 556.204 L 431.653 556.204 C 431.467 555.284 431.34 554.541 431.273 553.974 C 431.2 553.414 431.157 552.781 431.143 552.074 C 430.223 553.434 429.003 554.544 427.483 555.404 C 425.97 556.264 424.29 556.694 422.443 556.694 Z M 422.773 554.234 C 424.507 554.234 426.153 553.777 427.713 552.864 C 429.267 551.951 430.41 550.737 431.143 549.224 L 431.143 543.874 L 425.873 543.874 C 423.28 543.874 421.247 544.434 419.773 545.554 C 418.307 546.667 417.573 548.037 417.573 549.664 C 417.573 551.024 418.043 552.127 418.983 552.974 C 419.917 553.814 421.18 554.234 422.773 554.234 ZM 451.304 556.204 L 440.844 556.204 L 440.844 554.164 L 444.664 553.864 L 444.664 533.214 L 440.844 532.904 L 440.844 530.844 L 447.154 530.844 L 447.384 535.394 C 448.197 533.801 449.29 532.564 450.664 531.684 C 452.037 530.811 453.677 530.374 455.584 530.374 C 458.337 530.374 460.434 531.214 461.874 532.894 C 463.307 534.574 464.024 537.204 464.024 540.784 L 464.024 553.864 L 467.844 554.164 L 467.844 556.204 L 457.394 556.204 L 457.394 554.164 L 461.214 553.864 L 461.214 540.804 C 461.214 537.871 460.674 535.801 459.594 534.594 C 458.514 533.394 456.974 532.794 454.974 532.794 C 452.88 532.794 451.227 533.377 450.014 534.544 C 448.794 535.717 447.947 537.251 447.474 539.144 L 447.474 553.864 L 451.304 554.164 L 451.304 556.204 ZM 481.725 556.694 C 479.705 556.694 477.968 556.181 476.515 555.154 C 475.061 554.121 473.951 552.674 473.185 550.814 C 472.425 548.954 472.045 546.757 472.045 544.224 L 472.045 543.734 C 472.045 541.034 472.425 538.684 473.185 536.684 C 473.951 534.684 475.065 533.131 476.525 532.024 C 477.991 530.924 479.738 530.374 481.765 530.374 C 483.531 530.374 485.068 530.751 486.375 531.504 C 487.681 532.251 488.755 533.297 489.595 534.644 L 489.595 522.004 L 485.775 521.704 L 485.775 519.644 L 489.595 519.644 L 492.405 519.644 L 492.405 553.864 L 496.225 554.164 L 496.225 556.204 L 489.905 556.204 L 489.685 552.614 C 488.858 553.901 487.775 554.901 486.435 555.614 C 485.088 556.334 483.518 556.694 481.725 556.694 Z M 482.235 554.284 C 484.061 554.284 485.585 553.871 486.805 553.044 C 488.025 552.211 488.955 551.084 489.595 549.664 L 489.595 537.824 C 488.988 536.357 488.098 535.151 486.925 534.204 C 485.751 533.264 484.205 532.794 482.285 532.794 C 480.645 532.794 479.278 533.254 478.185 534.174 C 477.091 535.094 476.265 536.374 475.705 538.014 C 475.151 539.654 474.875 541.561 474.875 543.734 L 474.875 544.224 C 474.875 547.291 475.488 549.734 476.715 551.554 C 477.941 553.374 479.781 554.284 482.235 554.284 ZM 523.203 556.694 C 521.029 556.694 519.116 556.167 517.463 555.114 C 515.809 554.061 514.513 552.601 513.573 550.734 C 512.633 548.867 512.163 546.714 512.163 544.274 L 512.163 542.984 C 512.163 540.564 512.633 538.404 513.573 536.504 C 514.513 534.604 515.783 533.107 517.383 532.014 C 518.983 530.921 520.766 530.374 522.733 530.374 C 524.813 530.374 526.593 530.821 528.073 531.714 C 529.546 532.601 530.676 533.854 531.463 535.474 C 532.256 537.094 532.653 538.997 532.653 541.184 L 532.653 543.574 L 515.073 543.574 L 515.023 544.604 C 515.043 546.477 515.393 548.147 516.073 549.614 C 516.753 551.087 517.703 552.244 518.923 553.084 C 520.149 553.931 521.576 554.354 523.203 554.354 C 524.796 554.354 526.199 554.101 527.413 553.594 C 528.626 553.081 529.693 552.387 530.613 551.514 L 531.803 553.434 C 530.823 554.374 529.633 555.154 528.233 555.774 C 526.833 556.387 525.156 556.694 523.203 556.694 Z M 515.213 541.084 L 515.263 541.224 L 529.843 541.224 L 529.843 540.524 C 529.843 539.037 529.556 537.704 528.983 536.524 C 528.409 535.344 527.596 534.421 526.543 533.754 C 525.489 533.081 524.219 532.744 522.733 532.744 C 521.393 532.744 520.183 533.107 519.103 533.834 C 518.023 534.561 517.143 535.554 516.463 536.814 C 515.783 538.067 515.366 539.491 515.213 541.084 ZM 547.978 556.204 L 537.288 556.204 L 537.288 554.164 L 541.108 553.864 L 541.108 533.114 L 536.888 533.114 L 536.888 530.844 L 541.108 530.844 L 541.108 527.114 C 541.108 524.587 541.744 522.627 543.018 521.234 C 544.291 519.847 546.078 519.154 548.378 519.154 C 548.911 519.154 549.454 519.187 550.008 519.254 C 550.561 519.327 551.118 519.441 551.678 519.594 L 551.308 521.864 C 550.914 521.771 550.504 521.697 550.078 521.644 C 549.644 521.591 549.171 521.564 548.658 521.564 C 547.124 521.564 545.951 522.047 545.138 523.014 C 544.331 523.987 543.928 525.354 543.928 527.114 L 543.928 530.844 L 550.088 530.844 L 550.088 533.114 L 543.928 533.114 L 543.928 553.864 L 547.978 554.164 L 547.978 556.204 ZM 564.923 556.204 L 554.233 556.204 L 554.233 554.164 L 558.053 553.864 L 558.053 533.114 L 553.833 533.114 L 553.833 530.844 L 558.053 530.844 L 558.053 527.114 C 558.053 524.587 558.69 522.627 559.963 521.234 C 561.236 519.847 563.023 519.154 565.323 519.154 C 565.856 519.154 566.4 519.187 566.953 519.254 C 567.506 519.327 568.063 519.441 568.623 519.594 L 568.253 521.864 C 567.86 521.771 567.45 521.697 567.023 521.644 C 566.59 521.591 566.116 521.564 565.603 521.564 C 564.07 521.564 562.896 522.047 562.083 523.014 C 561.276 523.987 560.873 525.354 560.873 527.114 L 560.873 530.844 L 567.033 530.844 L 567.033 533.114 L 560.873 533.114 L 560.873 553.864 L 564.923 554.164 L 564.923 556.204 ZM 582.101 556.694 C 579.928 556.694 578.015 556.167 576.361 555.114 C 574.708 554.061 573.411 552.601 572.471 550.734 C 571.531 548.867 571.061 546.714 571.061 544.274 L 571.061 542.984 C 571.061 540.564 571.531 538.404 572.471 536.504 C 573.411 534.604 574.681 533.107 576.281 532.014 C 577.881 530.921 579.665 530.374 581.631 530.374 C 583.711 530.374 585.491 530.821 586.971 531.714 C 588.445 532.601 589.575 533.854 590.361 535.474 C 591.155 537.094 591.551 538.997 591.551 541.184 L 591.551 543.574 L 573.971 543.574 L 573.921 544.604 C 573.941 546.477 574.291 548.147 574.971 549.614 C 575.651 551.087 576.601 552.244 577.821 553.084 C 579.048 553.931 580.475 554.354 582.101 554.354 C 583.695 554.354 585.098 554.101 586.311 553.594 C 587.525 553.081 588.591 552.387 589.511 551.514 L 590.701 553.434 C 589.721 554.374 588.531 555.154 587.131 555.774 C 585.731 556.387 584.055 556.694 582.101 556.694 Z M 574.111 541.084 L 574.161 541.224 L 588.741 541.224 L 588.741 540.524 C 588.741 539.037 588.455 537.704 587.881 536.524 C 587.308 535.344 586.495 534.421 585.441 533.754 C 584.388 533.081 583.118 532.744 581.631 532.744 C 580.291 532.744 579.081 533.107 578.001 533.834 C 576.921 534.561 576.041 535.554 575.361 536.814 C 574.681 538.067 574.265 539.491 574.111 541.084 ZM 607.318 556.694 C 605.211 556.694 603.348 556.164 601.728 555.104 C 600.115 554.037 598.851 552.554 597.938 550.654 C 597.025 548.747 596.568 546.534 596.568 544.014 L 596.568 543.034 C 596.568 540.561 597.008 538.374 597.888 536.474 C 598.768 534.567 600.015 533.074 601.628 531.994 C 603.235 530.914 605.125 530.374 607.298 530.374 C 609.265 530.374 611.015 530.747 612.548 531.494 C 614.081 532.234 615.361 533.191 616.388 534.364 L 616.438 540.104 L 614.098 540.104 L 613.718 535.364 C 612.938 534.537 612.025 533.894 610.978 533.434 C 609.931 532.974 608.728 532.744 607.368 532.744 C 605.775 532.744 604.378 533.187 603.178 534.074 C 601.971 534.967 601.035 536.191 600.368 537.744 C 599.708 539.297 599.378 541.061 599.378 543.034 L 599.378 544.014 C 599.378 546.081 599.705 547.891 600.358 549.444 C 601.018 550.997 601.941 552.204 603.128 553.064 C 604.315 553.924 605.721 554.354 607.348 554.354 C 609.235 554.354 610.811 553.857 612.078 552.864 C 613.345 551.871 614.111 550.407 614.378 548.474 L 616.888 548.474 L 616.928 548.614 C 616.788 550.207 616.318 551.611 615.518 552.824 C 614.711 554.044 613.615 554.994 612.228 555.674 C 610.848 556.354 609.211 556.694 607.318 556.694 ZM 630.693 556.654 C 628.907 556.654 627.523 556.101 626.543 554.994 C 625.557 553.894 625.063 552.117 625.063 549.664 L 625.063 533.114 L 620.683 533.114 L 620.683 530.844 L 625.063 530.844 L 625.063 524.324 L 627.873 524.324 L 627.873 530.844 L 633.783 530.844 L 633.783 533.114 L 627.873 533.114 L 627.873 549.664 C 627.873 551.351 628.177 552.567 628.783 553.314 C 629.383 554.054 630.183 554.424 631.183 554.424 C 631.717 554.424 632.24 554.387 632.753 554.314 C 633.267 554.247 633.797 554.174 634.343 554.094 L 634.763 556.114 C 634.203 556.281 633.563 556.411 632.843 556.504 C 632.123 556.604 631.407 556.654 630.693 556.654 ZM 660.667 556.204 L 650.187 556.204 L 650.187 554.164 L 654.007 553.864 L 654.007 533.214 L 650.187 532.904 L 650.187 530.844 L 656.517 530.844 L 656.747 535.184 C 657.534 533.664 658.611 532.484 659.977 531.644 C 661.344 530.797 662.971 530.374 664.857 530.374 C 666.811 530.374 668.437 530.854 669.737 531.814 C 671.031 532.774 671.961 534.247 672.527 536.234 C 673.247 534.407 674.321 532.971 675.747 531.924 C 677.181 530.877 678.911 530.354 680.937 530.354 C 683.644 530.354 685.734 531.257 687.207 533.064 C 688.687 534.864 689.427 537.647 689.427 541.414 L 689.427 553.834 L 693.247 554.144 L 693.247 556.184 L 682.767 556.184 L 682.767 554.144 L 686.587 553.834 L 686.587 541.364 C 686.587 538.224 686.037 536.007 684.937 534.714 C 683.837 533.414 682.311 532.764 680.357 532.764 C 678.151 532.764 676.454 533.464 675.267 534.864 C 674.081 536.264 673.371 538.034 673.137 540.174 L 673.137 553.864 L 676.957 554.164 L 676.957 556.204 L 666.477 556.204 L 666.477 554.164 L 670.297 553.864 L 670.297 541.364 C 670.297 538.291 669.741 536.094 668.627 534.774 C 667.507 533.454 665.971 532.794 664.017 532.794 C 661.957 532.794 660.351 533.341 659.197 534.434 C 658.051 535.527 657.267 536.981 656.847 538.794 L 656.847 553.864 L 660.667 554.164 L 660.667 556.204 ZM 704.49 556.694 C 702.084 556.694 700.204 556.054 698.85 554.774 C 697.49 553.494 696.81 551.761 696.81 549.574 C 696.81 548.007 697.264 546.634 698.17 545.454 C 699.077 544.274 700.36 543.357 702.02 542.704 C 703.687 542.051 705.66 541.724 707.94 541.724 L 713.19 541.724 L 713.19 538.814 C 713.19 536.987 712.647 535.514 711.56 534.394 C 710.474 533.281 708.837 532.724 706.65 532.724 C 705.417 532.724 704.31 532.921 703.33 533.314 C 702.357 533.714 701.51 534.217 700.79 534.824 L 700.56 538.694 L 698.24 538.694 L 698.24 533.404 C 699.334 532.464 700.574 531.724 701.96 531.184 C 703.354 530.644 704.934 530.374 706.7 530.374 C 709.68 530.374 711.977 531.124 713.59 532.624 C 715.197 534.124 716 536.204 716 538.864 L 716 551.094 C 716 551.594 716.017 552.091 716.05 552.584 C 716.084 553.077 716.137 553.564 716.21 554.044 L 719.24 554.164 L 719.24 556.204 L 713.7 556.204 C 713.514 555.284 713.387 554.541 713.32 553.974 C 713.247 553.414 713.204 552.781 713.19 552.074 C 712.27 553.434 711.05 554.544 709.53 555.404 C 708.017 556.264 706.337 556.694 704.49 556.694 Z M 704.82 554.234 C 706.554 554.234 708.2 553.777 709.76 552.864 C 711.314 551.951 712.457 550.737 713.19 549.224 L 713.19 543.874 L 707.92 543.874 C 705.327 543.874 703.294 544.434 701.82 545.554 C 700.354 546.667 699.62 548.037 699.62 549.664 C 699.62 551.024 700.09 552.127 701.03 552.974 C 701.964 553.814 703.227 554.234 704.82 554.234 ZM 733.351 556.204 L 722.891 556.204 L 722.891 554.164 L 726.711 553.864 L 726.711 533.214 L 722.891 532.904 L 722.891 530.844 L 729.201 530.844 L 729.431 535.394 C 730.244 533.801 731.337 532.564 732.711 531.684 C 734.084 530.811 735.724 530.374 737.631 530.374 C 740.384 530.374 742.481 531.214 743.921 532.894 C 745.354 534.574 746.071 537.204 746.071 540.784 L 746.071 553.864 L 749.891 554.164 L 749.891 556.204 L 739.441 556.204 L 739.441 554.164 L 743.261 553.864 L 743.261 540.804 C 743.261 537.871 742.721 535.801 741.641 534.594 C 740.561 533.394 739.021 532.794 737.021 532.794 C 734.927 532.794 733.274 533.377 732.061 534.544 C 730.841 535.717 729.994 537.251 729.521 539.144 L 729.521 553.864 L 733.351 554.164 L 733.351 556.204 ZM 762.006 556.694 C 759.599 556.694 757.719 556.054 756.366 554.774 C 755.006 553.494 754.326 551.761 754.326 549.574 C 754.326 548.007 754.779 546.634 755.686 545.454 C 756.593 544.274 757.876 543.357 759.536 542.704 C 761.203 542.051 763.176 541.724 765.456 541.724 L 770.706 541.724 L 770.706 538.814 C 770.706 536.987 770.163 535.514 769.076 534.394 C 767.989 533.281 766.353 532.724 764.166 532.724 C 762.933 532.724 761.826 532.921 760.846 533.314 C 759.873 533.714 759.026 534.217 758.306 534.824 L 758.076 538.694 L 755.756 538.694 L 755.756 533.404 C 756.849 532.464 758.089 531.724 759.476 531.184 C 760.869 530.644 762.449 530.374 764.216 530.374 C 767.196 530.374 769.493 531.124 771.106 532.624 C 772.713 534.124 773.516 536.204 773.516 538.864 L 773.516 551.094 C 773.516 551.594 773.533 552.091 773.566 552.584 C 773.599 553.077 773.653 553.564 773.726 554.044 L 776.756 554.164 L 776.756 556.204 L 771.216 556.204 C 771.029 555.284 770.903 554.541 770.836 553.974 C 770.763 553.414 770.719 552.781 770.706 552.074 C 769.786 553.434 768.566 554.544 767.046 555.404 C 765.533 556.264 763.853 556.694 762.006 556.694 Z M 762.336 554.234 C 764.069 554.234 765.716 553.777 767.276 552.864 C 768.829 551.951 769.973 550.737 770.706 549.224 L 770.706 543.874 L 765.436 543.874 C 762.843 543.874 760.809 544.434 759.336 545.554 C 757.869 546.667 757.136 548.037 757.136 549.664 C 757.136 551.024 757.606 552.127 758.546 552.974 C 759.479 553.814 760.743 554.234 762.336 554.234 ZM 791.046 566.444 C 789.813 566.444 788.51 566.297 787.136 566.004 C 785.763 565.704 784.56 565.304 783.526 564.804 L 784.276 562.464 C 785.276 562.944 786.333 563.317 787.446 563.584 C 788.566 563.851 789.753 563.984 791.006 563.984 C 793.413 563.984 795.22 563.271 796.426 561.844 C 797.64 560.411 798.246 558.421 798.246 555.874 L 798.246 552.784 C 797.4 554.017 796.316 554.977 794.996 555.664 C 793.676 556.351 792.143 556.694 790.396 556.694 C 788.363 556.694 786.62 556.181 785.166 555.154 C 783.713 554.121 782.596 552.671 781.816 550.804 C 781.036 548.937 780.646 546.744 780.646 544.224 L 780.646 543.734 C 780.646 541.034 781.036 538.684 781.816 536.684 C 782.596 534.684 783.716 533.131 785.176 532.024 C 786.636 530.924 788.39 530.374 790.436 530.374 C 792.25 530.374 793.82 530.764 795.146 531.544 C 796.48 532.331 797.56 533.424 798.386 534.824 L 798.686 530.844 L 801.056 530.844 L 801.056 555.874 C 801.056 558.047 800.663 559.924 799.876 561.504 C 799.083 563.077 797.936 564.294 796.436 565.154 C 794.936 566.014 793.14 566.444 791.046 566.444 Z M 790.906 554.284 C 792.753 554.284 794.28 553.861 795.486 553.014 C 796.7 552.174 797.62 551.017 798.246 549.544 L 798.246 537.944 C 797.653 536.464 796.776 535.234 795.616 534.254 C 794.463 533.281 792.91 532.794 790.956 532.794 C 789.316 532.794 787.94 533.257 786.826 534.184 C 785.72 535.111 784.886 536.397 784.326 538.044 C 783.76 539.684 783.476 541.581 783.476 543.734 L 783.476 544.224 C 783.476 547.291 784.1 549.734 785.346 551.554 C 786.586 553.374 788.44 554.284 790.906 554.284 Z M 804.316 532.884 L 800.496 533.254 L 799.576 530.844 L 804.316 530.844 L 804.316 532.884 ZM 818.773 556.694 C 816.6 556.694 814.686 556.167 813.033 555.114 C 811.38 554.061 810.083 552.601 809.143 550.734 C 808.203 548.867 807.733 546.714 807.733 544.274 L 807.733 542.984 C 807.733 540.564 808.203 538.404 809.143 536.504 C 810.083 534.604 811.353 533.107 812.953 532.014 C 814.553 530.921 816.336 530.374 818.303 530.374 C 820.383 530.374 822.163 530.821 823.643 531.714 C 825.116 532.601 826.246 533.854 827.033 535.474 C 827.826 537.094 828.223 538.997 828.223 541.184 L 828.223 543.574 L 810.643 543.574 L 810.593 544.604 C 810.613 546.477 810.963 548.147 811.643 549.614 C 812.323 551.087 813.273 552.244 814.493 553.084 C 815.72 553.931 817.146 554.354 818.773 554.354 C 820.366 554.354 821.77 554.101 822.983 553.594 C 824.196 553.081 825.263 552.387 826.183 551.514 L 827.373 553.434 C 826.393 554.374 825.203 555.154 823.803 555.774 C 822.403 556.387 820.726 556.694 818.773 556.694 Z M 810.783 541.084 L 810.833 541.224 L 825.413 541.224 L 825.413 540.524 C 825.413 539.037 825.126 537.704 824.553 536.524 C 823.98 535.344 823.166 534.421 822.113 533.754 C 821.06 533.081 819.79 532.744 818.303 532.744 C 816.963 532.744 815.753 533.107 814.673 533.834 C 813.593 534.561 812.713 535.554 812.033 536.814 C 811.353 538.067 810.936 539.491 810.783 541.084 ZM 843.058 556.204 L 832.578 556.204 L 832.578 554.164 L 836.398 553.864 L 836.398 533.214 L 832.578 532.904 L 832.578 530.844 L 838.908 530.844 L 839.138 535.184 C 839.925 533.664 841.001 532.484 842.368 531.644 C 843.735 530.797 845.361 530.374 847.248 530.374 C 849.201 530.374 850.828 530.854 852.128 531.814 C 853.421 532.774 854.351 534.247 854.918 536.234 C 855.638 534.407 856.711 532.971 858.138 531.924 C 859.571 530.877 861.301 530.354 863.328 530.354 C 866.035 530.354 868.125 531.257 869.598 533.064 C 871.078 534.864 871.818 537.647 871.818 541.414 L 871.818 553.834 L 875.638 554.144 L 875.638 556.184 L 865.158 556.184 L 865.158 554.144 L 868.978 553.834 L 868.978 541.364 C 868.978 538.224 868.428 536.007 867.328 534.714 C 866.228 533.414 864.701 532.764 862.748 532.764 C 860.541 532.764 858.845 533.464 857.658 534.864 C 856.471 536.264 855.761 538.034 855.528 540.174 L 855.528 553.864 L 859.348 554.164 L 859.348 556.204 L 848.868 556.204 L 848.868 554.164 L 852.688 553.864 L 852.688 541.364 C 852.688 538.291 852.131 536.094 851.018 534.774 C 849.898 533.454 848.361 532.794 846.408 532.794 C 844.348 532.794 842.741 533.341 841.588 534.434 C 840.441 535.527 839.658 536.981 839.238 538.794 L 839.238 553.864 L 843.058 554.164 L 843.058 556.204 ZM 890 556.694 C 887.826 556.694 885.913 556.167 884.26 555.114 C 882.606 554.061 881.31 552.601 880.37 550.734 C 879.43 548.867 878.96 546.714 878.96 544.274 L 878.96 542.984 C 878.96 540.564 879.43 538.404 880.37 536.504 C 881.31 534.604 882.58 533.107 884.18 532.014 C 885.78 530.921 887.563 530.374 889.53 530.374 C 891.61 530.374 893.39 530.821 894.87 531.714 C 896.343 532.601 897.473 533.854 898.26 535.474 C 899.053 537.094 899.45 538.997 899.45 541.184 L 899.45 543.574 L 881.87 543.574 L 881.82 544.604 C 881.84 546.477 882.19 548.147 882.87 549.614 C 883.55 551.087 884.5 552.244 885.72 553.084 C 886.946 553.931 888.373 554.354 890 554.354 C 891.593 554.354 892.996 554.101 894.21 553.594 C 895.423 553.081 896.49 552.387 897.41 551.514 L 898.6 553.434 C 897.62 554.374 896.43 555.154 895.03 555.774 C 893.63 556.387 891.953 556.694 890 556.694 Z M 882.01 541.084 L 882.06 541.224 L 896.64 541.224 L 896.64 540.524 C 896.64 539.037 896.353 537.704 895.78 536.524 C 895.206 535.344 894.393 534.421 893.34 533.754 C 892.286 533.081 891.016 532.744 889.53 532.744 C 888.19 532.744 886.98 533.107 885.9 533.834 C 884.82 534.561 883.94 535.554 883.26 536.814 C 882.58 538.067 882.163 539.491 882.01 541.084 ZM 914.265 556.204 L 903.805 556.204 L 903.805 554.164 L 907.625 553.864 L 907.625 533.214 L 903.805 532.904 L 903.805 530.844 L 910.115 530.844 L 910.345 535.394 C 911.158 533.801 912.251 532.564 913.625 531.684 C 914.998 530.811 916.638 530.374 918.545 530.374 C 921.298 530.374 923.395 531.214 924.835 532.894 C 926.268 534.574 926.985 537.204 926.985 540.784 L 926.985 553.864 L 930.805 554.164 L 930.805 556.204 L 920.355 556.204 L 920.355 554.164 L 924.175 553.864 L 924.175 540.804 C 924.175 537.871 923.635 535.801 922.555 534.594 C 921.475 533.394 919.935 532.794 917.935 532.794 C 915.841 532.794 914.188 533.377 912.975 534.544 C 911.755 535.717 910.908 537.251 910.435 539.144 L 910.435 553.864 L 914.265 554.164 L 914.265 556.204 ZM 943.748 556.654 C 941.961 556.654 940.578 556.101 939.598 554.994 C 938.611 553.894 938.118 552.117 938.118 549.664 L 938.118 533.114 L 933.738 533.114 L 933.738 530.844 L 938.118 530.844 L 938.118 524.324 L 940.928 524.324 L 940.928 530.844 L 946.838 530.844 L 946.838 533.114 L 940.928 533.114 L 940.928 549.664 C 940.928 551.351 941.231 552.567 941.838 553.314 C 942.438 554.054 943.238 554.424 944.238 554.424 C 944.771 554.424 945.295 554.387 945.808 554.314 C 946.321 554.247 946.851 554.174 947.398 554.094 L 947.818 556.114 C 947.258 556.281 946.618 556.411 945.898 556.504 C 945.178 556.604 944.461 556.654 943.748 556.654 ZM 975.012 556.204 L 972.482 556.204 L 965.402 533.044 L 962.542 532.904 L 962.542 530.844 L 971.562 530.844 L 971.562 532.904 L 968.262 533.144 L 972.622 548.004 L 973.792 552.174 L 973.932 552.174 L 975.292 548.004 L 981.082 530.844 L 983.562 530.844 L 989.332 547.974 L 990.782 552.434 L 990.922 552.404 L 992.282 547.974 L 996.642 533.114 L 993.312 532.904 L 993.312 530.844 L 1002.242 530.844 L 1002.242 532.904 L 999.382 533.094 L 992.332 556.204 L 989.612 556.204 L 983.682 538.904 L 982.392 534.734 L 982.252 534.754 L 980.982 538.904 L 975.012 556.204 ZM 1015.903 556.204 L 1005.453 556.204 L 1005.453 554.164 L 1009.273 553.864 L 1009.273 533.214 L 1005.453 532.904 L 1005.453 530.844 L 1012.083 530.844 L 1012.083 553.864 L 1015.903 554.164 L 1015.903 556.204 Z M 1012.083 523.694 L 1008.943 523.694 L 1008.943 519.644 L 1012.083 519.644 L 1012.083 523.694 ZM 1029.436 556.654 C 1027.649 556.654 1026.266 556.101 1025.286 554.994 C 1024.299 553.894 1023.806 552.117 1023.806 549.664 L 1023.806 533.114 L 1019.426 533.114 L 1019.426 530.844 L 1023.806 530.844 L 1023.806 524.324 L 1026.616 524.324 L 1026.616 530.844 L 1032.526 530.844 L 1032.526 533.114 L 1026.616 533.114 L 1026.616 549.664 C 1026.616 551.351 1026.919 552.567 1027.526 553.314 C 1028.126 554.054 1028.926 554.424 1029.926 554.424 C 1030.459 554.424 1030.982 554.387 1031.496 554.314 C 1032.009 554.247 1032.539 554.174 1033.086 554.094 L 1033.506 556.114 C 1032.946 556.281 1032.306 556.411 1031.586 556.504 C 1030.866 556.604 1030.149 556.654 1029.436 556.654 ZM 1047.084 556.204 L 1036.624 556.204 L 1036.624 554.164 L 1040.444 553.864 L 1040.444 522.004 L 1036.624 521.704 L 1036.624 519.644 L 1043.264 519.644 L 1043.264 535.274 C 1044.091 533.727 1045.204 532.524 1046.604 531.664 C 1047.998 530.804 1049.641 530.374 1051.534 530.374 C 1054.208 530.374 1056.258 531.197 1057.684 532.844 C 1059.118 534.497 1059.834 537.074 1059.834 540.574 L 1059.834 553.864 L 1063.654 554.164 L 1063.654 556.204 L 1053.194 556.204 L 1053.194 554.164 L 1057.014 553.864 L 1057.014 540.524 C 1057.014 537.757 1056.478 535.777 1055.404 534.584 C 1054.324 533.391 1052.824 532.794 1050.904 532.794 C 1048.838 532.794 1047.178 533.371 1045.924 534.524 C 1044.664 535.677 1043.778 537.177 1043.264 539.024 L 1043.264 553.864 L 1047.084 554.164 L 1047.084 556.204 ZM 1089.591 556.224 L 1079.141 556.224 L 1079.141 554.164 L 1082.961 553.864 L 1082.961 524.444 L 1079.141 524.144 L 1079.141 522.104 L 1093.531 522.104 C 1095.971 522.104 1098.035 522.464 1099.721 523.184 C 1101.408 523.897 1102.691 524.944 1103.571 526.324 C 1104.458 527.697 1104.901 529.391 1104.901 531.404 C 1104.901 533.357 1104.445 535.007 1103.531 536.354 C 1102.618 537.694 1101.335 538.714 1099.681 539.414 C 1098.035 540.107 1096.101 540.461 1093.881 540.474 L 1085.771 540.544 L 1085.771 553.864 L 1089.591 554.164 L 1089.591 556.224 Z M 1106.871 556.224 L 1102.091 556.224 L 1094.751 539.284 L 1097.561 539.254 L 1104.081 553.954 L 1106.871 554.144 L 1106.871 556.224 Z M 1085.771 524.444 L 1085.771 538.204 L 1093.251 538.204 C 1096.298 538.204 1098.531 537.577 1099.951 536.324 C 1101.378 535.077 1102.091 533.431 1102.091 531.384 C 1102.091 529.177 1101.378 527.471 1099.951 526.264 C 1098.531 525.051 1096.391 524.444 1093.531 524.444 L 1085.771 524.444 ZM 1119.834 556.204 L 1111.064 556.204 L 1111.064 554.164 L 1113.944 553.904 L 1121.984 543.294 L 1114.274 533.144 L 1111.534 532.904 L 1111.534 530.844 L 1120.114 530.844 L 1120.114 532.904 L 1117.394 533.024 L 1123.674 541.394 L 1129.864 533.024 L 1127.044 532.904 L 1127.044 530.844 L 1135.554 530.844 L 1135.554 532.904 L 1132.794 533.144 L 1125.314 543.244 L 1133.514 553.904 L 1136.304 554.164 L 1136.304 556.204 L 1127.354 556.204 L 1127.354 554.164 L 1130.334 554.044 L 1123.624 545.184 L 1116.994 554.044 L 1119.834 554.164 L 1119.834 556.204 ZM 1149.009 556.694 C 1147.009 556.694 1145.249 556.324 1143.729 555.584 C 1142.202 554.844 1141.012 553.731 1140.159 552.244 C 1139.312 550.757 1138.872 548.921 1138.839 546.734 L 1138.889 546.594 L 1141.509 546.594 C 1141.542 549.141 1142.196 551.064 1143.469 552.364 C 1144.742 553.657 1146.572 554.304 1148.959 554.304 C 1150.432 554.304 1151.696 553.981 1152.749 553.334 C 1153.802 552.687 1154.616 551.767 1155.189 550.574 C 1155.756 549.387 1156.039 547.997 1156.039 546.404 L 1156.039 524.444 L 1151.609 524.164 L 1151.609 522.074 L 1162.669 522.074 L 1162.669 524.144 L 1158.849 524.444 L 1158.849 546.404 C 1158.849 548.484 1158.456 550.294 1157.669 551.834 C 1156.882 553.374 1155.749 554.567 1154.269 555.414 C 1152.796 556.267 1151.042 556.694 1149.009 556.694 ZM 1178.609 556.694 C 1176.656 556.694 1174.706 556.397 1172.759 555.804 C 1170.819 555.211 1168.942 554.291 1167.129 553.044 L 1167.129 546.434 L 1169.469 546.434 L 1169.819 551.754 C 1171.199 552.614 1172.629 553.254 1174.109 553.674 C 1175.596 554.094 1177.096 554.304 1178.609 554.304 C 1180.409 554.304 1181.976 554.027 1183.309 553.474 C 1184.649 552.921 1185.689 552.147 1186.429 551.154 C 1187.169 550.161 1187.539 549.017 1187.539 547.724 C 1187.539 546.471 1187.239 545.371 1186.639 544.424 C 1186.039 543.477 1185.062 542.647 1183.709 541.934 C 1182.356 541.214 1180.522 540.557 1178.209 539.964 C 1175.729 539.324 1173.702 538.574 1172.129 537.714 C 1170.562 536.854 1169.406 535.817 1168.659 534.604 C 1167.919 533.397 1167.549 531.957 1167.549 530.284 C 1167.549 528.577 1168.002 527.074 1168.909 525.774 C 1169.816 524.467 1171.086 523.444 1172.719 522.704 C 1174.352 521.957 1176.252 521.584 1178.419 521.584 C 1180.719 521.584 1182.772 521.927 1184.579 522.614 C 1186.379 523.307 1187.906 524.191 1189.159 525.264 L 1189.159 531.364 L 1186.839 531.364 L 1186.489 526.534 C 1185.502 525.734 1184.339 525.107 1182.999 524.654 C 1181.652 524.201 1180.126 523.974 1178.419 523.974 C 1176.752 523.974 1175.316 524.254 1174.109 524.814 C 1172.909 525.367 1171.982 526.111 1171.329 527.044 C 1170.682 527.984 1170.359 529.047 1170.359 530.234 C 1170.359 531.374 1170.619 532.377 1171.139 533.244 C 1171.652 534.111 1172.542 534.877 1173.809 535.544 C 1175.076 536.211 1176.849 536.847 1179.129 537.454 C 1182.829 538.407 1185.626 539.694 1187.519 541.314 C 1189.406 542.927 1190.349 545.047 1190.349 547.674 C 1190.349 549.487 1189.856 551.067 1188.869 552.414 C 1187.876 553.767 1186.496 554.821 1184.729 555.574 C 1182.962 556.321 1180.922 556.694 1178.609 556.694 Z" transform="matrix(1, 0, 0, 1, 0, 0)" style="fill: rgb(38, 55, 64); white-space: pre;"/>
  <g transform="matrix(1.4266, 0, 0, 1.4266, 548.697632, 91.875008)" style="">
    <circle style="fill: rgb(38, 55, 64);" cx="64" cy="64" r="64"/>
    <path style="fill: rgb(230, 230, 230);" d="M3.902,86.052C12.889,110.533,36.404,128,64,128c0.688,0,1.368-0.03,2.051-0.052 C57.064,103.467,33.549,86,5.953,86C5.266,86,4.585,86.03,3.902,86.052z"/>
    <g>
      <path style="fill: rgb(204, 88, 76);" d="M66.229,40.395c-1.971-2.472-7.503-1.295-13.833,2.94c-4.399,3.104-11.73,16.229-12.525,19.29 s4.902,2.307,6.121,1.59c1.929-1.133,7.375-9.52,7.919-10.357c0.545-0.838,4.149-0.883,6.917-1.471 C61.621,49.326,65.141,42.072,66.229,40.395z"/>
      <path style="fill: rgb(204, 88, 76);" d="M88.034,54.557c3.062,0.794,4.237,6.327,2.94,13.832c-1.048,5.282-10.056,17.318-12.526,19.289 c-2.474,1.974-4.101-3.539-3.943-4.942c0.251-2.225,5.697-10.609,6.242-11.448c0.545-0.838-0.882-4.149-1.472-6.916 C81.749,62.397,86.945,56.233,88.034,54.557z"/>
      <path style="fill: rgb(230, 230, 230);" d="M107.633,0.51c-2.518-1.634-18.865-0.326-31.395,18.963c-10.348,15.936-16.251,32.37-16.502,34.592 c2.517,1.636,9.226,5.991,9.226,5.991s6.71,4.356,9.226,5.99c1.93-1.132,15.086-14.05,24.892-29.146 C115.604,17.609,110.146,2.145,107.633,0.51z"/>
      <circle style="fill: rgb(38, 55, 64);" cx="91.292" cy="25.67" r="10"/>
      <path style="fill: rgb(194, 226, 242);" d="M88.023,30.702c-2.773-1.804-3.565-5.525-1.765-8.3c1.804-2.775,5.524-3.566,8.302-1.766 c2.772,1.803,3.563,5.524,1.764,8.301C94.521,31.713,90.801,32.504,88.023,30.702z"/>
      <path style="fill: rgb(204, 88, 76);" d="M101.096,10.574c3.08,2,6.449,3.199,9.863,3.658c0.352-7.678-1.936-12.818-3.326-13.725 c-1.395-0.902-7.021-0.9-13.892,2.542C95.549,5.982,98.016,8.573,101.096,10.574z"/>
      <g>
        <path style="fill: rgb(204, 88, 76);" d="M76.598,72.167c-0.6,0.923-1.845,1.188-2.768,0.589l-18.45-11.98 c-0.923-0.601-1.188-1.846-0.589-2.769l2.18-3.354c0.6-0.922,1.844-1.188,2.768-0.588l18.449,11.982 c0.924,0.6,1.188,1.844,0.59,2.769L76.598,72.167z"/>
      </g>
      <path style="fill: rgb(191, 83, 71);" d="M62.59,60.688c-0.6,0.925-1.336,2.097-2.104,3.402l9.079,5.896 c0.881-1.233,1.651-2.385,2.252-3.309s1.336-2.096,2.104-3.4l-9.077-5.896C63.961,58.613,63.189,59.763,62.59,60.688z"/>
      <path style="fill: rgb(255, 212, 100);" d="M57.057,61.863C50.44,72.051,42.108,92.694,46.508,95.551c4.398,2.857,19.866-13.148,26.484-23.341 L57.057,61.863z"/>
      <path style="fill: rgb(242, 178, 85);" d="M58.734,62.952c-6.617,10.188-9.165,20.28-5.692,22.535c3.474,2.256,11.655-4.178,18.272-14.365 L58.734,62.952z"/>
      <ellipse transform="matrix(-0.8387 -0.5446 0.5446 -0.8387 88.9017 153.7037)" style="fill: rgb(204, 88, 76);" cx="67.213" cy="63.687" rx="3.5" ry="16.999"/>
    </g>
    <g>
      <ellipse transform="matrix(-0.9264 -0.3765 0.3765 -0.9264 7.8562 194.4982)" style="fill: rgb(204, 204, 204);" cx="22.933" cy="96.481" rx="6" ry="4.5"/>
      <path style="fill: rgb(179, 179, 179);" d="M23.26,100.669c-3.07-1.247-4.801-4.125-3.865-6.428c0.535-1.318,1.84-2.144,3.424-2.39 c-2.438-0.35-4.674,0.545-5.424,2.39c-0.936,2.303,0.795,5.181,3.865,6.428c1.313,0.533,2.646,0.661,3.829,0.479 C24.482,101.06,23.869,100.917,23.26,100.669z"/>
    </g>
    <g>
      <ellipse transform="matrix(-0.7008 -0.7133 0.7133 -0.7008 -5.6871 199.4058)" style="fill: rgb(204, 204, 204);" cx="38.973" cy="100.896" rx="3.936" ry="2.951"/>
      <path style="fill: rgb(179, 179, 179);" d="M38.051,103.457c-1.521-1.549-1.813-3.732-0.65-4.875c0.664-0.655,1.664-0.811,2.683-0.547 c-1.376-0.845-2.955-0.892-3.887,0.023c-1.163,1.145-0.871,3.326,0.651,4.876c0.651,0.663,1.422,1.089,2.182,1.285 C38.686,104.012,38.354,103.766,38.051,103.457z"/>
    </g>
    <g>
      <ellipse transform="matrix(-0.9624 -0.2718 0.2718 -0.9624 42.0374 229.5513)" style="fill: rgb(204, 204, 204);" cx="36.917" cy="111.864" rx="5.968" ry="4.476"/>
      <path style="fill: rgb(179, 179, 179);" d="M37.711,115.956c-3.169-0.896-5.195-3.552-4.521-5.931c0.382-1.362,1.582-2.318,3.121-2.736 c-2.447-0.078-4.562,1.05-5.101,2.956c-0.673,2.378,1.354,5.035,4.525,5.93c1.356,0.384,2.688,0.363,3.839,0.054 C38.967,116.209,38.342,116.135,37.711,115.956z"/>
    </g>
    <path style="fill: rgb(255, 212, 100);" d="M27.953,21c0,4-1,5-5,5c4,0,5,1,5,5c0-4,1-5,5-5C28.953,26,27.953,25,27.953,21z"/>
    <path style="fill: rgb(255, 212, 100);" d="M14.953,50c0,4-1,5-5,5c4,0,5,1,5,5c0-4,1-5,5-5C15.953,55,14.953,54,14.953,50z"/>
    <path style="fill: rgb(255, 212, 100);" d="M28.953,68c0,4-1,5-5,5c4,0,5,1,5,5c0-4,1-5,5-5C29.953,73,28.953,72,28.953,68z"/>
    <path style="fill: rgb(255, 212, 100);" d="M81.953,101c0,4-1,5-5,5c4,0,5,1,5,5c0-4,1-5,5-5C82.953,106,81.953,105,81.953,101z"/>
    <path style="fill: rgb(255, 212, 100);" d="M117.953,78c0,4-1,5-5,5c4,0,5,1,5,5c0-4,1-5,5-5C118.953,83,117.953,82,117.953,78z"/>
    <path style="fill: rgb(255, 212, 100);" d="M114.953,43c0,4-1,5-5,5c4,0,5,1,5,5c0-4,1-5,5-5C115.953,48,114.953,47,114.953,43z"/>
    <path style="fill: rgb(255, 212, 100);" d="M64.953,7c0,4-1,5-5,5c4,0,5,1,5,5c0-4,1-5,5-5C65.953,12,64.953,11,64.953,7z"/>
    <path style="fill: rgb(255, 212, 100);" d="M47.953,28c0,4-1,5-5,5c4,0,5,1,5,5c0-4,1-5,5-5C48.953,33,47.953,32,47.953,28z"/>
  </g>
</svg>